<?xml version="1.0" encoding="utf-8"?>
<!-- Generator: Adobe Illustrator 27.8.1, SVG Export Plug-In . SVG Version: 6.00 Build 0)  -->
<svg version="1.1" id="Layer_1" xmlns="http://www.w3.org/2000/svg" xmlns:xlink="http://www.w3.org/1999/xlink" x="0px" y="0px"
	 viewBox="0 0 20 20" style="enable-background:new 0 0 20 20;" xml:space="preserve">
<style type="text/css">
	.st0{fill:#FFFFFF;}
	.st1{fill-rule:evenodd;clip-rule:evenodd;}
</style>
<path class="st0" d="M0,10C0,4.5,4.5,0,10,0l0,0c5.5,0,10,4.5,10,10v10H10C4.5,20,0,15.5,0,10L0,10z"/>
<path class="st1" d="M18.3,10v8.3H10c-4.6,0-8.3-3.7-8.3-8.3c0-4.6,3.7-8.3,8.3-8.3C14.6,1.7,18.3,5.4,18.3,10z M0,10
	C0,4.5,4.5,0,10,0c5.5,0,10,4.5,10,10v10H10C4.5,20,0,15.5,0,10z M4,10.4c0,2.1,1.4,3.8,3.6,3.8c1.8,0,3.1-1.2,3.3-2.8H9.1
	c-0.2,0.7-0.8,1.2-1.6,1.2c-1.1,0-1.9-0.9-1.9-2.2s0.7-2.2,1.9-2.2c0.7,0,1.3,0.4,1.5,1.1h1.8c-0.3-1.5-1.5-2.7-3.3-2.7
	C5.4,6.6,4,8.3,4,10.4z M13.3,6.8h-1.7V14h1.8v-3.8c0-0.7,0.2-1.2,0.5-1.5c0.3-0.3,0.7-0.4,1.3-0.4h0.5V6.7h-0.4
	c-0.9,0-1.6,0.3-2,0.9V6.8z"/>
</svg>
