<svg width="16" height="16" viewBox="0 0 16 16" fill="none" xmlns="http://www.w3.org/2000/svg">
	<path d="M15.7747 8.47155L12.1333 12.1693C12.0924 12.2109 12.0436 12.244 11.9899 12.2668C11.9361 12.2895 11.8784 12.3015 11.8201 12.3019C11.7617 12.3023 11.7038 12.2913 11.6497 12.2694C11.5956 12.2474 11.5464 12.2151 11.5048 12.1741L11.5 12.1693L11.1031 11.7662C11.0223 11.6828 10.9771 11.5712 10.9771 11.4551C10.9771 11.339 11.0223 11.2274 11.1031 11.144L14.1969 7.99999L11.104 4.85733C11.0232 4.77392 10.978 4.66234 10.978 4.54621C10.978 4.43008 11.0232 4.31851 11.104 4.2351L11.5009 3.83199C11.5418 3.79041 11.5906 3.75729 11.6443 3.73455C11.6981 3.7118 11.7558 3.69986 11.8141 3.69941C11.8725 3.69897 11.9304 3.71002 11.9845 3.73194C12.0386 3.75387 12.0878 3.78623 12.1294 3.82718L12.1342 3.83199L15.7747 7.52977C15.8969 7.65603 15.9653 7.8249 15.9653 8.00066C15.9653 8.17642 15.8969 8.34529 15.7747 8.47155Z" fill="currentColor"/>
	<path d="M0.225336 7.52846L3.86667 3.83068C3.90762 3.78909 3.95637 3.75598 4.01012 3.73323C4.06387 3.71049 4.12157 3.69855 4.17994 3.6981C4.2383 3.69766 4.29618 3.70871 4.35027 3.73063C4.40436 3.75255 4.45361 3.78492 4.49519 3.82587L4.5 3.83068L4.89689 4.23379C4.9777 4.3172 5.02288 4.42877 5.02288 4.5449C5.02288 4.66103 4.9777 4.77261 4.89689 4.85601L1.80311 8.00001L4.896 11.1427C4.97681 11.2261 5.02199 11.3377 5.02199 11.4538C5.02199 11.5699 4.97681 11.6815 4.896 11.7649L4.49911 12.168C4.45816 12.2096 4.40942 12.2427 4.35567 12.2655C4.30192 12.2882 4.24421 12.3001 4.18585 12.3006C4.12748 12.301 4.0696 12.29 4.01551 12.2681C3.96142 12.2461 3.91217 12.2138 3.87059 12.1728L3.86578 12.168L0.225336 8.47157C0.102671 8.34524 0.0340576 8.17609 0.0340576 8.00001C0.0340576 7.82393 0.102671 7.65478 0.225336 7.52846Z" fill="currentColor"/>
	<path d="M6.88397 13.1942H6.37553C6.30735 13.1942 6.24007 13.1785 6.17892 13.1484C6.11777 13.1182 6.06437 13.0744 6.02286 13.0203C5.98136 12.9662 5.95286 12.9033 5.93956 12.8364C5.92627 12.7696 5.92854 12.7005 5.9462 12.6347L8.6982 2.39421C8.72353 2.29972 8.77934 2.21623 8.85697 2.15668C8.93459 2.09714 9.0297 2.06487 9.12753 2.06488H9.61864C9.68658 2.06496 9.7536 2.08062 9.81454 2.11065C9.87549 2.14068 9.92873 2.18428 9.97019 2.2381C10.0117 2.29192 10.0402 2.35453 10.0537 2.42112C10.0672 2.48771 10.0652 2.5565 10.048 2.62221L7.31331 12.8649C7.28797 12.9594 7.23216 13.0429 7.15453 13.1024C7.07691 13.162 6.98181 13.1942 6.88397 13.1942Z" fill="currentColor"/>
	</svg>
	