<svg width="48" height="49" viewBox="0 0 48 49" fill="none" xmlns="http://www.w3.org/2000/svg">
<path d="M43.9998 8.5H3.99984C3.64622 8.5 3.30708 8.64048 3.05703 8.89052C2.80698 9.14057 2.6665 9.47971 2.6665 9.83333V39.1667C2.6665 39.5203 2.80698 39.8594 3.05703 40.1095C3.30708 40.3595 3.64622 40.5 3.99984 40.5H43.9998C44.3535 40.5 44.6926 40.3595 44.9426 40.1095C45.1927 39.8594 45.3332 39.5203 45.3332 39.1667V9.83333C45.3332 9.47971 45.1927 9.14057 44.9426 8.89052C44.6926 8.64048 44.3535 8.5 43.9998 8.5ZM42.6665 34.3307L35.6372 27.3C35.1371 26.8001 34.4589 26.5192 33.7518 26.5192C33.0447 26.5192 32.3666 26.8001 31.8665 27.3L27.7705 31.396L17.6958 21.32C17.1958 20.8201 16.5176 20.5392 15.8105 20.5392C15.1034 20.5392 14.4252 20.8201 13.9252 21.32L5.33317 29.912V11.1667H42.6665V34.3307Z" fill="#6D6D6D"/>
<path d="M35.6 21.8334C37.5882 21.8334 39.2 20.2216 39.2 18.2334C39.2 16.2451 37.5882 14.6334 35.6 14.6334C33.6118 14.6334 32 16.2451 32 18.2334C32 20.2216 33.6118 21.8334 35.6 21.8334Z" fill="#6D6D6D"/>
</svg>
