<svg width="200" height="58" viewBox="0 0 200 58" fill="none" xmlns="http://www.w3.org/2000/svg">
<g clip-path="url(#clip0_1204_6194)">
<path fill-rule="evenodd" clip-rule="evenodd" d="M16.0714 12.9287H28.1343C31.6889 12.9287 34.4425 13.641 36.3948 15.064C38.3466 16.4878 39.3232 18.5332 39.3232 21.2003C39.3232 22.7289 38.9736 24.0551 38.2741 25.1789C37.5748 26.3026 36.5402 27.195 35.1711 27.8537C37.0648 28.483 38.5146 29.4798 39.5198 30.8432C40.5252 32.2073 41.0277 33.863 41.0277 35.8109C41.0277 37.7291 40.5395 39.3776 39.5634 40.7559C38.587 42.1346 37.1957 43.1989 35.3896 43.9476C33.5825 44.6971 31.4123 45.0716 28.8773 45.0716H16.0714V12.9287ZM0 57.5716H57.1429V0.428711H0V57.5716ZM87.4998 12.9287H99.5627C103.117 12.9287 105.871 13.641 107.823 15.064C109.775 16.4878 110.752 18.5332 110.752 21.2003C110.752 22.7289 110.402 24.0551 109.702 25.1789C109.003 26.3026 107.969 27.195 106.599 27.8537C108.493 28.483 109.943 29.4798 110.948 30.8432C111.954 32.2073 112.456 33.863 112.456 35.8109C112.456 37.7291 111.968 39.3776 110.992 40.7559C110.016 42.1346 108.624 43.1989 106.818 43.9476C105.011 44.6971 102.841 45.0716 100.306 45.0716H87.4998V12.9287ZM71.4284 57.5716H128.571V0.428711H71.4284V57.5716ZM99.7812 31.1803H94.0123V39.8567H99.6939C101.646 39.8567 103.147 39.49 104.196 38.7553C105.244 38.0212 105.769 36.9648 105.769 35.586C105.769 32.6492 103.773 31.1803 99.7812 31.1803ZM98.9509 18.1435C102.418 18.1435 104.152 19.4176 104.152 21.9644C104.152 23.2837 103.708 24.31 102.819 25.0441C101.93 25.7787 100.641 26.1455 98.9509 26.1455H94.0123V18.1435H98.9509ZM27.5225 18.1435C30.9896 18.1435 32.7238 19.4176 32.7238 21.9644C32.7238 23.2837 32.2791 24.31 31.3905 25.0441C30.5014 25.7787 29.2121 26.1455 27.5225 26.1455H22.5838V18.1435H27.5225ZM28.3529 31.1803H22.5838V39.8567H28.2655C30.2173 39.8567 31.7184 39.49 32.7673 38.7553C33.8161 38.0212 34.3407 36.9648 34.3407 35.586C34.3407 32.6492 32.3445 31.1803 28.3529 31.1803ZM179.27 44.7748C181.023 44.3494 182.566 43.7691 183.896 43.0344V36.9094C181.084 38.6432 178.014 39.5092 174.687 39.5092C172.509 39.5092 170.657 39.0982 169.129 38.2755C167.602 37.4534 166.437 36.256 165.636 34.6842C164.834 33.113 164.434 31.2109 164.434 28.978C164.434 26.746 164.849 24.8512 165.681 23.2939C166.513 21.7371 167.707 20.5475 169.266 19.7248C170.823 18.9026 172.706 18.4909 174.914 18.4909C176.517 18.4909 178.045 18.7042 179.496 19.1298C180.948 19.556 182.293 20.1803 183.534 21.0023V14.7454C182.173 14.0405 180.698 13.5048 179.111 13.1371C177.523 12.7702 175.836 12.5863 174.052 12.5863C171.481 12.5863 169.159 12.9685 167.088 13.7319C165.016 14.4962 163.239 15.5978 161.757 17.0367C160.274 18.4764 159.141 20.2023 158.354 22.2142C157.567 24.2267 157.174 26.4816 157.174 28.978C157.174 31.5337 157.553 33.8326 158.309 35.8739C159.064 37.916 160.153 39.6414 161.575 41.0516C162.997 42.4614 164.736 43.5412 166.793 44.2901C168.849 45.0392 171.163 45.4139 173.734 45.4139C175.67 45.4139 177.515 45.2003 179.27 44.7748ZM200 57.5716H142.857V0.42879H200V57.5716Z" fill="black"/>
</g>
<defs>
<clipPath id="clip0_1204_6194">
<rect width="200" height="57.1429" fill="white" transform="translate(0 0.428711)"/>
</clipPath>
</defs>
</svg>
