<svg width="200" height="66" viewBox="0 0 200 66" fill="none" xmlns="http://www.w3.org/2000/svg">
<path fill-rule="evenodd" clip-rule="evenodd" d="M167.362 1.65364C158.954 1.57768 150.86 4.84448 144.861 10.7355C138.862 16.6265 135.448 24.6593 135.371 33.0671C135.523 41.4508 138.961 49.4396 144.944 55.3145C150.927 61.1895 158.977 64.4811 167.362 64.4811C175.747 64.4811 183.797 61.1895 189.78 55.3145C195.763 49.4396 199.2 41.4508 199.353 33.0671C199.276 24.6593 195.862 16.6266 189.863 10.7356C183.863 4.84454 175.77 1.57773 167.362 1.65364ZM36.1286 21.2368H33.4664L23.4512 36.4514H36.1287L36.1286 21.2368ZM46.4458 12.1243V54.0091H36.1286V45.2691H17.6468L11.8929 54.0091H0.73877L28.3101 12.1244L46.4458 12.1243ZM65.3477 32.4414H84.4L78.3823 41.5814H65.3477V54.0093H55.03V12.1244H84.3999V21.2642H65.3477L65.3477 32.4414ZM111.453 12.152L91.654 12.1244V54.0092H101.972V41.5813H111.453C116.057 41.5813 126.768 40.0936 126.768 26.8663C126.768 13.6391 116.058 12.152 111.453 12.152ZM110.47 32.4414H101.972V21.2642H110.47C114.538 21.2642 116.599 23.0993 116.599 26.8982C116.599 30.6971 114.538 32.4414 110.47 32.4414Z" fill="black"/>
</svg>
