<svg width="200" height="42" viewBox="0 0 200 42" fill="none" xmlns="http://www.w3.org/2000/svg">
<g clip-path="url(#clip0_1204_6208)">
<path d="M15.7903 29.7872C18.9916 35.0361 24.863 38.5578 31.3975 38.5578C41.0525 38.5578 46.3675 30.2256 46.3675 30.2256L47.0516 32.4451C42.5816 38.2585 34.5963 41.7606 25.6623 41.7606C15.3763 41.7606 6.50534 36.8538 2.42356 29.7776C0.886713 27.1124 0.0288086 24.1354 0.0288086 21.0001C0.0288086 9.53439 11.5041 0.240234 25.6619 0.240234C35.6652 0.240234 43.7192 4.52496 47.9471 10.7343L31.1624 20.7853L40.7415 6.07657C38.001 4.35301 34.6387 2.73904 31.1624 2.73904C21.3355 2.73904 13.2416 10.9395 13.2416 20.7661C13.2416 24.0586 14.1767 27.1522 15.7903 29.7872ZM60.7327 29.7813C60.6823 30.1166 60.6572 30.4552 60.6574 30.7942C60.6574 34.5243 63.6816 37.5489 67.4121 37.5489C71.1427 37.5489 74.1665 34.5247 74.1665 30.7942C74.1667 30.4539 74.1414 30.1141 74.0909 29.7776C73.6023 26.5316 70.7984 24.0398 67.4118 24.0398C64.0255 24.0398 61.2212 26.5316 60.7327 29.7813ZM85.7964 29.7776L89.1535 41.0857H77.3775L75.0621 33.3424C73.5116 37.8043 68.2789 41.0857 62.0629 41.0857C54.6255 41.0857 48.5969 36.3885 48.5969 30.5931C48.5969 30.3219 48.6102 30.0525 48.636 29.7776C49.1652 24.3686 54.9742 20.1005 62.0629 20.1005C66.0864 20.1005 69.6977 21.4753 72.1651 23.6549L68.9575 12.9306H55.4421C55.4421 12.9306 57.6907 11.5819 67.6627 7.95363C77.6347 4.32571 80.7947 12.9306 80.7947 12.9306L85.7964 29.7776ZM123.447 29.7776V41.0857H111.33V16.2408C111.33 15.3629 110.981 14.5209 110.361 13.9001C109.74 13.2793 108.898 12.9306 108.02 12.9306C107.353 12.9304 106.702 13.1316 106.151 13.5078C105.601 13.884 105.177 14.4177 104.935 15.039V41.0857H93.0426V12.9306H86.1071C86.1071 12.9306 95.7555 7.08539 99.1011 7.08539C102.272 7.08539 104.619 9.52147 104.912 12.6247C109.578 10.1078 114.205 7.08539 117.389 7.08539C120.678 7.08539 123.356 9.70671 123.447 12.9749V29.7776ZM142.113 29.7776L143.8 35.3512C143.832 37.7401 145.795 39.6511 148.205 39.6511C150.668 39.6511 152.664 37.6548 152.664 35.1918C152.664 35.0173 152.654 34.8457 152.635 34.6767L151.201 29.7776L146.167 12.5727C145.919 10.3432 144.029 8.61006 141.734 8.61006C139.462 8.61006 137.295 10.7332 137.019 12.9302L142.113 29.7776ZM161.397 29.7798C159.102 36.7379 152.548 41.7606 144.821 41.7606C137.093 41.7606 130.539 36.7383 128.244 29.7776C127.663 28.0134 127.368 26.1677 127.37 24.3103C127.37 14.6726 135.183 6.86031 144.821 6.86031C154.459 6.86031 162.272 14.6726 162.272 24.3103C162.272 26.2205 161.965 28.0596 161.397 29.7798ZM181.459 29.7776V41.0857H169.567V12.9306H162.916C162.916 12.9306 172.279 7.08539 175.625 7.08539C178.797 7.08539 181.143 9.52147 181.437 12.6247C186.103 10.1078 190.73 7.08539 193.913 7.08539C197.203 7.08539 199.881 9.70671 199.972 12.9749V41.0857H187.855V16.2408C187.855 15.3629 187.506 14.5209 186.885 13.9001C186.264 13.2793 185.422 12.9306 184.544 12.9306C183.878 12.9304 183.226 13.1316 182.676 13.5078C182.125 13.884 181.701 14.4177 181.459 15.039V29.7776Z" fill="black"/>
</g>
<defs>
<clipPath id="clip0_1204_6208">
<rect width="200" height="41.52" fill="white" transform="translate(0 0.240234)"/>
</clipPath>
</defs>
</svg>
