<svg width="215" height="20" viewBox="0 0 215 20" fill="none" xmlns="http://www.w3.org/2000/svg">
<g id="content credentials">
<path d="M7.42798 19.483C3.3583 19.483 0.817993 16.2947 0.817993 12.5101C0.817993 8.72559 3.3583 5.53724 7.42798 5.53724C10.72 5.53724 12.9493 7.68873 13.5455 10.4883H10.2275C9.78684 9.24402 8.74998 8.49229 7.42798 8.49229C5.38018 8.49229 4.03226 10.0994 4.03226 12.5101C4.03226 14.9208 5.38018 16.528 7.42798 16.528C8.80182 16.528 9.86461 15.7244 10.2794 14.4024H13.5714C13.027 17.2797 10.7719 19.483 7.42798 19.483Z" fill="black"/>
<path d="M21.233 19.483C17.1115 19.483 14.5453 16.2947 14.5453 12.5101C14.5453 8.72559 17.1115 5.53724 21.233 5.53724C25.3545 5.53724 27.9208 8.72559 27.9208 12.5101C27.9208 16.2947 25.3545 19.483 21.233 19.483ZM17.7855 12.5101C17.7855 14.9208 19.1852 16.528 21.233 16.528C23.2549 16.528 24.6547 14.9208 24.6547 12.5101C24.6547 10.0994 23.2549 8.49229 21.233 8.49229C19.1852 8.49229 17.7855 10.0994 17.7855 12.5101Z" fill="black"/>
<path d="M37.82 11.24C37.82 10.229 37.5607 9.63284 37.1201 9.16625C36.7053 8.75151 36.0832 8.49229 35.3574 8.49229C34.5798 8.49229 33.9577 8.75151 33.5429 9.16625C33.1022 9.63284 32.843 10.229 32.843 11.24V19.1201H29.6028V5.90014H32.7134V6.85924C33.517 6.05567 34.6316 5.53724 36.0573 5.53724C37.6126 5.53724 38.8568 6.10751 39.7382 7.09253C40.5676 7.97386 41.0602 9.19217 41.0602 11.0585V19.1201H37.82V11.24Z" fill="black"/>
<path d="M48.0883 19.3016C46.533 19.3016 45.7035 18.9127 45.1592 18.2647C44.6926 17.7204 44.4593 16.9686 44.4593 15.6466V8.69967H41.6339V5.90014H44.5371V1.7527H47.6736V5.90014H50.7842V8.69967H47.6736V15.1541C47.6736 15.9577 47.8291 16.3465 48.6845 16.3465H50.7842V19.3016H48.0883Z" fill="black"/>
<path d="M57.6268 19.483C53.609 19.483 51.0946 16.2947 51.0946 12.5101C51.0946 8.72559 53.5312 5.53724 57.4454 5.53724C61.3595 5.53724 63.7962 8.72559 63.7962 12.5101C63.7962 12.899 63.7702 13.2619 63.7184 13.5729H54.283C54.4903 15.4393 55.7605 16.6576 57.6268 16.6576C58.9488 16.6576 59.9598 15.9836 60.4004 14.869H63.5629C62.8889 17.513 60.7374 19.483 57.6268 19.483ZM54.283 11.1363H60.6078C60.4005 9.42547 59.1821 8.259 57.4713 8.259C55.7346 8.259 54.4903 9.42547 54.283 11.1363Z" fill="black"/>
<path d="M73.6858 11.24C73.6858 10.229 73.4266 9.63284 72.986 9.16625C72.5712 8.75151 71.9491 8.49229 71.2233 8.49229C70.4456 8.49229 69.8235 8.75151 69.4088 9.16625C68.9681 9.63284 68.7089 10.229 68.7089 11.24V19.1201H65.4687V5.90014H68.5793V6.85924C69.3829 6.05567 70.4975 5.53724 71.9232 5.53724C73.4785 5.53724 74.7227 6.10751 75.604 7.09253C76.4335 7.97386 76.926 9.19217 76.926 11.0585V19.1201H73.6858V11.24Z" fill="black"/>
<path d="M83.9542 19.3016C82.3989 19.3016 81.5694 18.9127 81.0251 18.2647C80.5585 17.7204 80.3252 16.9686 80.3252 15.6466V8.69967H77.4997V5.90014H80.403V1.7527H83.5395V5.90014H86.65V8.69967H83.5395V15.1541C83.5395 15.9577 83.695 16.3465 84.5504 16.3465H86.65V19.3016H83.9542Z" fill="black"/>
<path d="M99.096 19.483C95.0263 19.483 92.486 16.2947 92.486 12.5101C92.486 8.72559 95.0263 5.53724 99.096 5.53724C102.388 5.53724 104.617 7.68873 105.214 10.4883H101.896C101.455 9.24402 100.418 8.49229 99.096 8.49229C97.0482 8.49229 95.7003 10.0994 95.7003 12.5101C95.7003 14.9208 97.0482 16.528 99.096 16.528C100.47 16.528 101.533 15.7244 101.947 14.4024H105.239C104.695 17.2797 102.44 19.483 99.096 19.483Z" fill="black"/>
<path d="M106.809 19.1201V5.90014H109.92V7.32582C110.646 6.36673 111.786 5.74461 113.497 5.74461H114.301V8.80335H113.471C112.305 8.80335 111.579 9.06257 111.035 9.55508C110.413 10.0735 110.05 10.9289 110.05 12.225V19.1201H106.809Z" fill="black"/>
<path d="M121.056 19.483C117.038 19.483 114.523 16.2947 114.523 12.5101C114.523 8.72559 116.96 5.53724 120.874 5.53724C124.788 5.53724 127.225 8.72559 127.225 12.5101C127.225 12.899 127.199 13.2619 127.147 13.5729H117.712C117.919 15.4393 119.189 16.6576 121.056 16.6576C122.378 16.6576 123.389 15.9836 123.829 14.869H126.992C126.318 17.513 124.166 19.483 121.056 19.483ZM117.712 11.1363H124.037C123.829 9.42547 122.611 8.259 120.9 8.259C119.163 8.259 117.919 9.42547 117.712 11.1363Z" fill="black"/>
<path d="M138.255 19.1201V17.9277C137.296 18.8868 136 19.483 134.445 19.483C130.66 19.483 128.301 16.2428 128.301 12.5101C128.301 8.72559 130.66 5.53724 134.445 5.53724C135.948 5.53724 137.192 6.08159 138.151 6.96292V0.456619H141.392V19.1201H138.255ZM131.541 12.5101C131.541 14.8949 132.915 16.528 134.963 16.528C137.011 16.528 138.385 14.8949 138.385 12.5101C138.385 10.1253 137.011 8.49229 134.963 8.49229C132.915 8.49229 131.541 10.1253 131.541 12.5101Z" fill="black"/>
<path d="M149.365 19.483C145.347 19.483 142.833 16.2947 142.833 12.5101C142.833 8.72559 145.269 5.53724 149.183 5.53724C153.097 5.53724 155.534 8.72559 155.534 12.5101C155.534 12.899 155.508 13.2619 155.456 13.5729H146.021C146.228 15.4393 147.498 16.6576 149.365 16.6576C150.687 16.6576 151.698 15.9836 152.138 14.869H155.301C154.627 17.513 152.475 19.483 149.365 19.483ZM146.021 11.1363H152.346C152.138 9.42547 150.92 8.259 149.209 8.259C147.472 8.259 146.228 9.42547 146.021 11.1363Z" fill="black"/>
<path d="M165.165 11.24C165.165 10.229 164.905 9.63284 164.465 9.16625C164.05 8.75151 163.428 8.49229 162.702 8.49229C161.924 8.49229 161.302 8.75151 160.887 9.16625C160.447 9.63284 160.188 10.229 160.188 11.24V19.1201H156.947V5.90014H160.058V6.85924C160.862 6.05567 161.976 5.53724 163.402 5.53724C164.957 5.53724 166.201 6.10751 167.083 7.09253C167.912 7.97386 168.405 9.19217 168.405 11.0585V19.1201H165.165V11.24Z" fill="black"/>
<path d="M175.655 19.3016C174.099 19.3016 173.27 18.9127 172.726 18.2647C172.259 17.7204 172.026 16.9686 172.026 15.6466V8.69967H169.2V5.90014H172.103V1.7527H175.24V5.90014H178.35V8.69967H175.24V15.1541C175.24 15.9577 175.395 16.3465 176.251 16.3465H178.35V19.3016H175.655Z" fill="black"/>
<path d="M179.536 19.1201V5.90014H182.776V19.1201H179.536ZM179.484 4.31893V0.845442H182.828V4.31893H179.484Z" fill="black"/>
<path d="M189.286 19.483C186.357 19.483 184.49 17.6685 184.49 15.4393C184.49 12.3287 186.771 11.5251 189.7 11.2141L190.945 11.0585C191.645 10.9808 192.215 10.903 192.733 10.7993V10.5142C192.733 9.71061 192.5 9.19217 192.137 8.82927C191.748 8.46637 191.152 8.259 190.452 8.259C189.078 8.259 188.171 8.95888 188.093 10.0735H184.931C185.035 7.58504 187.108 5.53724 190.478 5.53724C192.111 5.53724 193.459 6.02975 194.366 6.78147C195.533 7.74057 195.896 8.80335 195.896 10.4364V16.3465C195.896 17.513 195.922 18.4462 195.948 19.2757V19.3016H193.018L192.967 18.0573C192.267 18.9387 190.971 19.483 189.286 19.483ZM187.705 15.4133C187.705 16.3724 188.534 16.9686 189.83 16.9686C190.763 16.9686 191.541 16.6835 192.007 16.2169C192.474 15.7762 192.733 15.18 192.733 14.1691V13.21C192.111 13.3655 191.748 13.4174 191.074 13.5211L190.141 13.6766C188.923 13.884 187.705 14.1173 187.705 15.4133Z" fill="black"/>
<path d="M198.029 19.1201V0.456619H201.269V19.1201H198.029Z" fill="black"/>
<path d="M208.583 19.483C205.031 19.483 203.01 17.4611 202.802 15.0764H206.042C206.302 16.2169 207.235 16.7872 208.583 16.7872C209.931 16.7872 210.942 16.2688 210.942 15.3356C210.942 14.6098 210.397 14.3506 209.49 14.1691L206.976 13.6766C204.254 13.1582 203.139 11.6806 203.139 9.71061C203.139 7.58504 205.057 5.53724 208.375 5.53724C211.719 5.53724 213.637 7.55912 213.767 9.78837H210.553C210.371 8.77743 209.568 8.23308 208.349 8.23308C207.183 8.23308 206.327 8.72559 206.327 9.52915C206.327 10.1513 206.768 10.4883 207.701 10.6438L210.216 11.1363C212.886 11.6547 214.156 13.0545 214.156 15.1541C214.156 17.4093 212.108 19.483 208.583 19.483Z" fill="black"/>
</g>
</svg>
