<svg width="196" height="64" viewBox="0 0 196 64" fill="none" xmlns="http://www.w3.org/2000/svg">
<g clip-path="url(#clip0_1204_6239)">
<path d="M0.0889612 0.0540401C15.3564 0.0540401 30.6327 0.000416328 45.9001 0.0897893C45.9001 4.75506 45.9001 9.41139 45.8555 14.0767C36.3335 14.166 26.8114 13.9694 17.2893 14.1928C17.4051 17.7678 17.4051 21.298 17.3873 24.8461C25.6178 24.9087 33.8572 24.8461 42.0877 24.8908C42.0877 29.6276 42.0877 34.3643 42.0877 39.1011C33.8572 39.1637 25.6178 39.1011 17.3873 39.1011C17.3873 42.676 17.3873 46.2509 17.3071 49.7722C26.8292 49.9957 36.3513 49.7097 45.8645 49.8974C45.8645 54.5448 45.8645 59.2011 45.8645 63.8574C30.5971 63.9915 15.3207 63.8574 0.0533313 63.8574C-0.0357435 42.6164 -0.0238668 21.3486 0.0889612 0.0540401Z" fill="black"/>
<path d="M56.5266 0.0714984C71.8118 0 87.0971 0.0536238 102.382 0C102.418 4.67123 102.418 9.34544 102.382 14.0226C92.878 14.1656 83.3648 13.9332 73.8784 14.1567V24.8278H98.6411C98.6411 29.5944 98.6411 34.3431 98.6411 39.0739H73.8784V63.9017C68.0885 63.9017 62.3046 63.9017 56.5266 63.9017C56.5979 42.6369 56.5979 21.3601 56.5266 0.0714984Z" fill="black"/>
<path d="M113.187 0C128.463 0.116185 143.74 -0.0625611 159.016 0.089373V14.0405C149.512 14.1835 139.99 14.0405 130.512 14.1299C130.512 17.7048 130.512 21.2797 130.512 24.8546C138.76 24.9261 147 24.8546 155.248 24.8993C155.248 29.6659 155.248 34.4086 155.248 39.1275H130.521V49.8523C140.025 49.9595 149.547 49.7897 159.025 49.9416C158.971 54.589 159.025 59.2454 159.025 63.9017C143.749 64.0447 128.472 63.9017 113.196 63.9821C113.148 42.6577 113.145 21.3304 113.187 0Z" fill="black"/>
<path d="M180.287 0.303418C187.992 -1.48404 196.445 5.17425 195.982 13.2357C196.383 20.1174 190.424 26.5701 183.512 26.6416C176.172 27.2851 169.153 20.6536 169.616 13.2357C169.358 7.02427 174.355 1.45633 180.287 0.303418Z" fill="black"/>
<path d="M180.964 37.483C188.678 35.9994 196.481 42.8453 195.982 50.737C196.552 59.8351 185.872 66.8241 177.766 62.8828C171.006 60.3535 167.835 52.0061 170.551 45.4461C172.502 41.3528 176.368 37.9119 180.964 37.483Z" fill="black"/>
</g>
<defs>
<clipPath id="clip0_1204_6239">
<rect width="196" height="64" fill="white"/>
</clipPath>
</defs>
</svg>
