<svg width="312" height="48" viewBox="0 0 312 48" fill="none" xmlns="http://www.w3.org/2000/svg">
<g clip-path="url(#clip0_1204_6206)">
<path d="M17.547 15.324V31.7072C19.6508 30.4538 20.6803 28.6633 21.4413 26.2909L21.9785 26.5595C21.4861 32.4681 17.3679 38.1977 11.1011 38.1977C4.83436 38.1977 0 33.4977 0 25.9775C0 20.2479 3.44672 16.7117 8.37061 13.6231C7.72964 13.443 7.06682 13.3527 6.40106 13.3545C3.17815 13.3545 1.29812 15.5479 1.29812 17.786H0.671439C0.634209 17.4741 0.61925 17.16 0.626677 16.846C0.626677 12.683 3.08862 8.02773 8.19156 8.02773C11.4592 8.02773 13.9659 11.0268 17.7708 11.0268C19.6956 11.0268 20.7699 10.3106 21.5308 8.65441H22.068C22.0232 11.564 21.1727 14.384 17.547 15.324ZM9.04205 13.8469C6.75916 16.2193 4.52103 18.726 4.52103 23.7842C4.52103 26.5595 5.37152 29.3347 7.47536 31.1253L8.863 30.3643V19.0393L7.4306 19.8003L6.98297 19.0841L13.6974 15.324C11.9964 14.9659 10.6087 14.2945 9.04205 13.8469ZM16.6965 15.5031C16.3547 15.5413 16.0107 15.5562 15.6669 15.5479C15.0652 15.5571 14.4644 15.497 13.8764 15.3688V28.5738L8.1468 31.7072C9.42775 32.6468 10.9913 33.1205 12.5783 33.05C13.9987 33.0443 15.4019 32.7393 16.6965 32.1548V15.5031ZM36.392 19.6213V34.9748C36.392 39.272 32.5827 42.1861 28.3347 43.0321L28.0662 42.5845C30.17 41.5549 31.5577 39.7152 31.5577 37.4771V21.4565L29.3643 19.4422L28.2005 20.606V32.7367L29.5433 33.9901V34.1691L25.9176 38.0232L21.7546 34.2139V34.0348L23.3661 32.3338V12.5488L28.1109 7.49058L28.2005 7.53534V19.4422L32.0948 15.324L35.9892 18.8603L37.1977 17.6965L37.7841 18.2784L36.392 19.6213ZM43.8271 28.7528V30.7671L47.8557 33.9453L50.9891 30.6776L51.571 31.2595L45.2103 38.0635L39.4851 33.4977L38.2318 34.751L37.6946 34.1691L39.0823 32.7367V21.5013L47.5424 15.324L52.2425 22.6203L43.8271 28.7528ZM43.9166 18.6365L43.8271 18.6812V27.6785L47.7214 24.8137L43.9166 18.6365ZM80.5727 38.0232L74.3507 32.6517L69.6059 38.0232L63.1601 32.4681V23.6947H61.9067C61.4577 23.6682 61.0158 23.8165 60.6737 24.1086C60.3316 24.4006 60.1158 24.8137 60.0714 25.2613H59.6238C59.4808 24.7055 59.4056 24.1343 59.4 23.5604C59.4 22.3965 59.8924 19.3527 63.1601 19.3527V12.5488C63.1601 9.90776 61.4143 9.77348 61.4143 7.49058C61.4143 4.93911 63.8315 2.56669 68.263 1L68.6659 1.3581C67.1887 2.0743 65.9801 2.96956 65.9801 4.89435C65.9801 7.84868 68.8449 7.08772 68.8449 11.743V13.5335L74.0822 8.02773L79.588 13.444L84.7804 8.02773L89.7938 12.9516V29.5138L80.5727 38.0232ZM74.0374 15.6821L70.904 12.5935L68.8449 14.6974V30.0509L72.6497 33.3186L74.0374 31.7519V15.6821ZM84.1537 15.1002L81.647 12.5935L79.7222 14.5183V30.0062L84.109 33.8558L84.1537 33.811V15.1002ZM104.207 38.0232L99.9997 34.1691H99.9102L96.1949 38.0232L91.6739 34.0348L90.6443 35.0644L90.0624 34.4824L91.3605 33.1396V21.367L99.8654 15.2793L104.521 18.9498L105.774 17.6965L106.446 18.2784L104.834 19.8003V31.931L106.893 33.811L108.191 32.4681L108.863 33.0948L104.207 38.0232ZM99.9997 21.2775L96.2844 18.3679L96.1949 18.4574V31.5281L98.9254 33.9453L99.9997 32.9158V21.2775ZM118.173 23.4261H122.381V33.0053L115.264 38.0232C114.781 37.4482 114.178 36.9857 113.498 36.6679C112.817 36.3501 112.076 36.1848 111.325 36.1834C109.982 36.1834 108.907 36.8101 107.833 37.9739L107.206 37.7501L113.384 28.8871H109.579V20.5613L117.01 15.324C117.905 16.0402 118.621 16.4879 119.785 16.4879C120.925 16.5256 122.044 16.1788 122.963 15.5031L123.411 15.8164L118.173 23.4261ZM117.547 27.3652H115.443L110.474 34.4824L110.519 34.572C111.497 33.8321 112.694 33.4384 113.921 33.4529C114.606 33.4554 115.282 33.6091 115.902 33.9031C116.521 34.1972 117.067 34.6243 117.502 35.1539L117.547 35.1136V27.3652ZM120.411 18.5917C119.554 19.3213 118.447 19.6902 117.323 19.6213C116.79 19.6041 116.266 19.4804 115.782 19.2575C115.297 19.0345 114.862 18.7168 114.503 18.3231L114.413 18.3679V24.9032H116.114L120.456 18.6365L120.411 18.5917ZM138.317 19.6213V34.9748C138.317 39.272 134.507 42.1861 130.259 43.0321L129.991 42.5845C132.095 41.5549 133.482 39.7152 133.482 37.4771V21.4565L131.289 19.4422L130.125 20.606V32.7367L131.468 33.9901V34.1691L127.842 38.0232L123.679 34.2139V34.0348L125.291 32.3338V12.5488L130.035 7.49058L130.125 7.53534V19.4422L134.019 15.324L137.918 18.8603L139.127 17.6965L139.709 18.2784L138.317 19.6213ZM147.09 38.0232L143.375 34.6167L142.121 35.8701L141.539 35.2882L143.017 33.7662V21.0089L141.405 19.5317L140.197 20.6956L139.615 20.1136L144.136 15.324L147.538 18.4127L148.746 17.1593L149.373 17.786L147.851 19.3079V32.11L149.731 33.8558L151.074 32.4681L151.656 33.0948L147.09 38.0232ZM145.792 14.9212L142.121 11.564L145.479 7.98297L149.149 11.3402L145.792 14.9212ZM166.427 38.0232L162.533 34.4824V21.4118L160.429 19.4422L158.907 21.0089V32.6919L160.295 33.9901V34.1691L156.624 38.0232L152.462 34.2139V34.0796L154.073 32.3786V21.0984L152.238 19.4422L150.895 20.7851L150.268 20.2032L154.834 15.324L158.907 18.9498V19.8451L163.16 15.324L167.054 18.8155L168.352 17.5174L168.934 18.1441L167.367 19.7108V32.2443L169.113 33.9005L170.59 32.3786L171.128 32.9605L166.427 38.0232ZM185.675 19.6705V34.8405C185.675 37.1682 186.974 37.0787 186.974 38.8244C186.974 40.8432 184.064 42.7232 179.588 46.0804C178.111 44.469 177.081 43.7976 175.693 43.7976C173.974 43.8598 172.311 44.4196 170.904 45.409L170.456 45.0509L176.589 37.8396L172.56 34.666L171.262 35.9596L170.68 35.3777L172.202 33.811V21.367L180.707 15.2793L185.273 18.8603L186.615 17.5622L187.197 18.1441L185.675 19.6705ZM182.229 38.341C181.11 37.6203 180.841 36.8593 180.841 34.9345V34.2586L173.634 42.6292L173.679 42.674C175.111 41.8235 176.186 41.2864 178.29 41.2864C180.08 41.2864 181.378 42.0473 182.542 43.0769C183.392 42.3607 184.019 41.6445 184.019 40.5254C184.019 39.6346 183.348 39.0482 182.229 38.3365V38.341ZM180.841 21.2775L177.126 18.3679L177.036 18.4574V32.1996L179.677 34.2586L180.841 32.9158V21.2775ZM194.941 38.0232L191.002 34.9301L189.794 36.1387L189.212 35.5612L190.599 34.1243V18.6365H188.003L187.914 18.547L189.48 16.2193H190.599V13.2202L195.344 8.16202L195.434 8.25155V16.2193H199.015L199.104 16.3088L197.537 18.6365H195.434V32.1996L197.582 33.8558L199.059 32.3338L199.641 32.9605L194.941 38.0232ZM214.507 20.0689V32.4681L206.942 38.0635L201.432 33.9005L200.178 35.1539L199.597 34.572L201.029 33.0948V21.0089L208.956 15.324L214.059 19.3079L215.357 18.0098L215.939 18.6365L214.507 20.0689ZM209.673 21.4118L205.908 18.4574L205.868 18.5022V31.8415L209.673 34.7063V21.4118ZM232.233 37.9739L228.339 34.4377V21.367L226.235 19.3974L224.708 20.9641V32.6472L226.096 33.9453V34.1243L222.426 37.9784L218.263 34.1691V34.0348L219.874 32.3338V21.0537L218.039 19.3974L216.696 20.7403L216.069 20.1584L220.635 15.2793L224.708 18.9051V19.8003L228.961 15.2793L232.855 18.7708L234.153 17.4726L234.735 18.0993L233.169 19.666V32.1996L234.914 33.8558L236.391 32.3338L236.929 32.9158L232.233 37.9739ZM259.713 38.0232C259.008 37.0608 258.023 36.34 256.893 35.9596V45.2747L256.803 45.3195L254.341 43.0366L249.149 47.8262L249.059 47.7814V35.7358C247.252 36.1903 245.647 37.2308 244.493 38.6946L244.135 38.4708C244.449 35.0196 246.15 32.4681 249.059 31.4833V22.7546H248.119C247.566 22.7382 247.024 22.9178 246.59 23.2618C246.156 23.6058 245.857 24.092 245.747 24.6347H245.21C244.975 23.9745 244.869 23.2756 244.896 22.5756C244.896 20.3822 246.374 18.726 248.791 18.726H249.059V13.8916L247.448 12.4592L246.194 13.7126L245.568 13.1307L250.536 8.02773L254.744 11.8773V16.2641L256.042 14.8764V9.72871H256.893V13.9812L262.488 8.02773L267.546 12.6383V32.11L259.713 38.0232ZM256.042 15.7269L254.744 17.0698V42.2756L256.042 43.4842V15.7269ZM261.906 14.6974L259.265 12.2802L256.893 14.7869V31.0357C258.997 31.3043 260.563 32.0205 261.861 33.4081L261.906 33.3634V14.6974ZM283.706 20.0689V32.4681L276.141 38.0635L270.635 33.9005L269.381 35.1539L268.8 34.572L270.232 33.0948V21.0089L278.155 15.324L283.258 19.3079L284.556 18.0098L285.138 18.6365L283.706 20.0689ZM278.871 21.4118L275.111 18.4574L275.066 18.5022V31.8415L278.871 34.7063V21.4118ZM294.807 23.4261H299.014V33.0053L291.897 38.0232C291.414 37.4482 290.811 36.9857 290.131 36.6679C289.451 36.3501 288.709 36.1848 287.958 36.1834C286.615 36.1834 285.541 36.8101 284.467 37.9739L283.84 37.7501L290.017 28.8871H286.212V20.5613L293.643 15.324C294.538 16.0402 295.254 16.4879 296.418 16.4879C297.559 16.5256 298.68 16.1788 299.601 15.5031L300.048 15.8164L294.807 23.4261ZM294.18 27.3652H292.076L287.108 34.4824L287.152 34.572C288.131 33.8321 289.328 33.4384 290.554 33.4529C291.24 33.4554 291.916 33.6091 292.535 33.9031C293.154 34.1972 293.7 34.6243 294.135 35.1539L294.18 35.1136V27.3652ZM297.049 18.5917C296.189 19.3203 295.081 19.6891 293.956 19.6213C293.423 19.6041 292.899 19.4804 292.415 19.2575C291.93 19.0345 291.496 18.7168 291.136 18.3231L291.047 18.3679V24.9032H292.748L297.09 18.6365L297.049 18.5917ZM307.3 38.0232L303.361 34.9301L302.148 36.1387L301.566 35.5612L302.953 34.1243V18.6365H300.357L300.268 18.547L301.834 16.2193H302.953V13.2202L307.703 8.16202L307.792 8.25155V16.2193H311.373L311.463 16.3088L309.896 18.6365H307.792V32.1996L309.941 33.8558L311.418 32.3338L312 32.9605L307.3 38.0232Z" fill="black"/>
</g>
<defs>
<clipPath id="clip0_1204_6206">
<rect width="312" height="46.8262" fill="white" transform="translate(0 0.586914)"/>
</clipPath>
</defs>
</svg>
